<?xml version="1.0" standalone="no"?><!DOCTYPE svg PUBLIC "-//W3C//DTD SVG 1.1//EN" "http://www.w3.org/Graphics/SVG/1.1/DTD/svg11.dtd"><svg class="icon" height="512" viewBox="0 0 1024 1024" version="1.1" xmlns="http://www.w3.org/2000/svg"><path d="M889.6 322.133333 740.266667 174.933333 593.066667 322.133333 558.933333 288 740.266667 104.533333 923.733333 288ZM716.8 138.666667l49.066667 0 0 584.533333-49.066667 0 0-584.533333ZM970.666667 919.466667 512 919.466667c-29.866667 0-53.333333-23.466667-53.333333-53.333333L458.666667 413.866667c0-29.866667 23.466667-53.333333 53.333333-53.333333l458.666667 0c29.866667 0 53.333333 23.466667 53.333333 53.333333l0 452.266667C1024 896 1000.533333 919.466667 970.666667 919.466667zM512 409.6c-2.133333 0-4.266667 2.133333-4.266667 4.266667l0 452.266667c0 2.133333 2.133333 4.266667 4.266667 4.266667l458.666667 0c2.133333 0 4.266667-2.133333 4.266667-4.266667L974.933333 413.866667c0-2.133333-2.133333-4.266667-4.266667-4.266667L512 409.6z" /></svg>